<svg xmlns="http://www.w3.org/2000/svg" xmlns:xlink="http://www.w3.org/1999/xlink" viewBox="0 0 144 144" width="144" height="144" preserveAspectRatio="xMidYMid meet" style="width: 100%; height: 100%; transform: translate3d(0px, 0px, 0px); content-visibility: visible;"><defs><clipPath id="__lottie_element_59"><rect width="144" height="144" x="0" y="0"/></clipPath><clipPath id="__lottie_element_61"><path d="M0,0 L144,0 L144,144 L0,144z"/></clipPath><g id="__lottie_element_68"><g transform="matrix(1,0,0,1,72,72)" opacity="1" style="display: block;"><g opacity="1" transform="matrix(1,0,0,1,0,0)"><path stroke-linecap="round" stroke-linejoin="round" fill-opacity="0" class="primary" stroke="rgb(250,183,1)" stroke-opacity="1" stroke-width="9" d=" M0,-16.067258834838867 C8.867520332336426,-16.067258834838867 16.067258834838867,-8.867520332336426 16.067258834838867,0 C16.067258834838867,8.867520332336426 8.867520332336426,16.067258834838867 0,16.067258834838867 C-8.867520332336426,16.067258834838867 -16.067258834838867,8.867520332336426 -16.067258834838867,0 C-16.067258834838867,-8.867520332336426 -8.867520332336426,-16.067258834838867 0,-16.067258834838867z"/><path class="primary" fill="rgb(250,183,1)" fill-opacity="1" d=" M0,-16.067258834838867 C8.867520332336426,-16.067258834838867 16.067258834838867,-8.867520332336426 16.067258834838867,0 C16.067258834838867,8.867520332336426 8.867520332336426,16.067258834838867 0,16.067258834838867 C-8.867520332336426,16.067258834838867 -16.067258834838867,8.867520332336426 -16.067258834838867,0 C-16.067258834838867,-8.867520332336426 -8.867520332336426,-16.067258834838867 0,-16.067258834838867z"/></g></g></g><filter id="__lottie_element_71" filterUnits="objectBoundingBox" x="0%" y="0%" width="100%" height="100%"><feComponentTransfer in="SourceGraphic"><feFuncA type="table" tableValues="1.0 0.0"/></feComponentTransfer></filter><mask id="__lottie_element_68_2" mask-type="alpha"><g filter="url(#__lottie_element_71)"><rect width="144" height="144" x="0" y="0" fill="#ffffff" opacity="0"/><use xmlns:ns1="http://www.w3.org/1999/xlink" ns1:href="#__lottie_element_68"/></g></mask></defs><g clip-path="url(#__lottie_element_59)"><g clip-path="url(#__lottie_element_61)" transform="matrix(1,0,0,1,0,0)" opacity="1" style="display: block;"><g mask="url(#__lottie_element_68_2)" style="display: block;"><g transform="matrix(1,0,0,1,72,72)" opacity="1"><g opacity="1" transform="matrix(1,0,0,1,0,0)"><path stroke-linecap="round" stroke-linejoin="round" fill-opacity="0" class="primary" stroke="rgb(250,183,1)" stroke-opacity="1" stroke-width="9" d=" M0,-53.269474029541016 C29.399423599243164,-53.269474029541016 53.269474029541016,-29.399423599243164 53.269474029541016,0 C53.269474029541016,29.399423599243164 29.399423599243164,53.269474029541016 0,53.269474029541016 C-29.399423599243164,53.269474029541016 -53.269474029541016,29.399423599243164 -53.269474029541016,0 C-53.269474029541016,-29.399423599243164 -29.399423599243164,-53.269474029541016 0,-53.269474029541016z"/><path class="primary" fill="rgb(250,183,1)" fill-opacity="1" d=" M0,-53.269474029541016 C29.399423599243164,-53.269474029541016 53.269474029541016,-29.399423599243164 53.269474029541016,0 C53.269474029541016,29.399423599243164 29.399423599243164,53.269474029541016 0,53.269474029541016 C-29.399423599243164,53.269474029541016 -53.269474029541016,29.399423599243164 -53.269474029541016,0 C-53.269474029541016,-29.399423599243164 -29.399423599243164,-53.269474029541016 0,-53.269474029541016z"/></g></g></g></g></g></svg>